<svg width="147" height="63" viewBox="0 0 147 63" fill="none" xmlns="http://www.w3.org/2000/svg">
<path d="M3.744 50V11.416H11.856V50H3.744Z" fill="#424242"/>
<path d="M27.628 50.416C24.4387 50.416 21.6307 49.792 19.204 48.544C16.812 47.296 14.9573 45.5973 13.64 43.448C12.3227 41.264 11.664 38.7853 11.664 36.012C11.664 33.204 12.3053 30.7253 13.588 28.576C14.9053 26.392 16.6907 24.6933 18.944 23.48C21.1973 22.232 23.7453 21.608 26.588 21.608C29.3267 21.608 31.788 22.1973 33.972 23.376C36.1907 24.52 37.9413 26.184 39.224 28.368C40.5067 30.5173 41.148 33.1 41.148 36.116C41.148 36.428 41.1307 36.792 41.096 37.208C41.0613 37.5893 41.0267 37.9533 40.992 38.3H18.268V33.568H36.728L33.608 34.972C33.608 33.516 33.3133 32.2507 32.724 31.176C32.1347 30.1013 31.32 29.2693 30.28 28.68C29.24 28.056 28.0267 27.744 26.64 27.744C25.2533 27.744 24.0227 28.056 22.948 28.68C21.908 29.2693 21.0933 30.1187 20.504 31.228C19.9147 32.3027 19.62 33.5853 19.62 35.076V36.324C19.62 37.8493 19.9493 39.2013 20.608 40.38C21.3013 41.524 22.2547 42.408 23.468 43.032C24.716 43.6213 26.172 43.916 27.836 43.916C29.3267 43.916 30.6267 43.6907 31.736 43.24C32.88 42.7893 33.92 42.1133 34.856 41.212L39.172 45.892C37.8893 47.348 36.2773 48.4747 34.336 49.272C32.3947 50.0347 30.1587 50.416 27.628 50.416Z" fill="#424242"/>
<path d="M56.904 50V44.54L56.384 43.344V33.568C56.384 31.8347 55.8467 30.4827 54.772 29.512C53.732 28.5413 52.12 28.056 49.936 28.056C48.4453 28.056 46.972 28.2987 45.516 28.784C44.0947 29.2347 42.8813 29.8587 41.876 30.656L38.964 24.988C40.4893 23.9133 42.3267 23.0813 44.476 22.492C46.6253 21.9027 48.8093 21.608 51.028 21.608C55.292 21.608 58.6027 22.6133 60.96 24.624C63.3173 26.6347 64.496 29.772 64.496 34.036V50H56.904ZM48.376 50.416C46.192 50.416 44.32 50.052 42.76 49.324C41.2 48.5613 40.004 47.5387 39.172 46.256C38.34 44.9733 37.924 43.5347 37.924 41.94C37.924 40.276 38.3227 38.82 39.12 37.572C39.952 36.324 41.252 35.3533 43.02 34.66C44.788 33.932 47.0933 33.568 49.936 33.568H57.372V38.3H50.82C48.9133 38.3 47.596 38.612 46.868 39.236C46.1747 39.86 45.828 40.64 45.828 41.576C45.828 42.616 46.2267 43.448 47.024 44.072C47.856 44.6613 48.9827 44.956 50.404 44.956C51.756 44.956 52.9693 44.644 54.044 44.02C55.1187 43.3613 55.8987 42.408 56.384 41.16L57.632 44.904C57.0427 46.7067 55.968 48.076 54.408 49.012C52.848 49.948 50.8373 50.416 48.376 50.416Z" fill="#424242"/>
<path d="M82.748 21.608C84.9667 21.608 86.9427 22.0587 88.676 22.96C90.444 23.8267 91.8307 25.1787 92.836 27.016C93.8413 28.8187 94.344 31.1413 94.344 33.984V50H86.232V35.232C86.232 32.9787 85.7293 31.3147 84.724 30.24C83.7533 29.1653 82.3667 28.628 80.564 28.628C79.2813 28.628 78.12 28.9053 77.08 29.46C76.0747 29.98 75.2773 30.7947 74.688 31.904C74.1333 33.0133 73.856 34.4347 73.856 36.168V50H65.744V11.416H73.856V29.772L72.036 27.432C73.0413 25.56 74.48 24.1213 76.352 23.116C78.224 22.1107 80.356 21.608 82.748 21.608Z" fill="#424242"/>
<path d="M95.744 50V22.024H103.856V50H95.744ZM99.8 18.124C98.3093 18.124 97.096 17.6907 96.16 16.824C95.224 15.9573 94.756 14.8827 94.756 13.6C94.756 12.3173 95.224 11.2427 96.16 10.376C97.096 9.50933 98.3093 9.076 99.8 9.076C101.291 9.076 102.504 9.492 103.44 10.324C104.376 11.1213 104.844 12.1613 104.844 13.444C104.844 14.796 104.376 15.9227 103.44 16.824C102.539 17.6907 101.325 18.124 99.8 18.124Z" fill="#424242"/>
<path d="M121.748 21.608C123.967 21.608 125.943 22.0587 127.676 22.96C129.444 23.8267 130.831 25.1787 131.836 27.016C132.841 28.8187 133.344 31.1413 133.344 33.984V50H125.232V35.232C125.232 32.9787 124.729 31.3147 123.724 30.24C122.753 29.1653 121.367 28.628 119.564 28.628C118.281 28.628 117.12 28.9053 116.08 29.46C115.075 29.98 114.277 30.7947 113.688 31.904C113.133 33.0133 112.856 34.4347 112.856 36.168V50H104.744V22.024H112.492V29.772L111.036 27.432C112.041 25.56 113.48 24.1213 115.352 23.116C117.224 22.1107 119.356 21.608 121.748 21.608Z" fill="#424242"/>
<path d="M139.812 50.416C138.425 50.416 137.229 49.948 136.224 49.012C135.253 48.0413 134.768 46.8107 134.768 45.32C134.768 43.8293 135.253 42.6333 136.224 41.732C137.229 40.796 138.425 40.328 139.812 40.328C141.233 40.328 142.429 40.796 143.4 41.732C144.371 42.6333 144.856 43.8293 144.856 45.32C144.856 46.8107 144.371 48.0413 143.4 49.012C142.429 49.948 141.233 50.416 139.812 50.416Z" fill="#424242"/>
</svg>
